<?xml version="1.0" encoding="UTF-8" standalone="no"?>
<!-- Created with Inkscape (http://www.inkscape.org/) -->
<svg
   xmlns:dc="http://purl.org/dc/elements/1.1/"
   xmlns:cc="http://creativecommons.org/ns#"
   xmlns:rdf="http://www.w3.org/1999/02/22-rdf-syntax-ns#"
   xmlns:svg="http://www.w3.org/2000/svg"
   xmlns="http://www.w3.org/2000/svg"
   xmlns:sodipodi="http://sodipodi.sourceforge.net/DTD/sodipodi-0.dtd"
   xmlns:inkscape="http://www.inkscape.org/namespaces/inkscape"
   width="744.09448819"
   height="1052.3622047"
   id="svg2"
   sodipodi:version="0.32"
   inkscape:version="0.46"
   sodipodi:docname="logo.svg"
   inkscape:output_extension="org.inkscape.output.svg.inkscape"
   inkscape:export-filename="/home/nathan/active/pysnakes/src/logo.png"
   inkscape:export-xdpi="73.285713"
   inkscape:export-ydpi="73.285713">
  <defs
     id="defs4">
    <inkscape:perspective
       sodipodi:type="inkscape:persp3d"
       inkscape:vp_x="0 : 526.18109 : 1"
       inkscape:vp_y="0 : 1000 : 0"
       inkscape:vp_z="744.09448 : 526.18109 : 1"
       inkscape:persp3d-origin="372.04724 : 350.78739 : 1"
       id="perspective10" />
    <filter
       inkscape:collect="always"
       id="filter3355"
       x="-0.056648095"
       width="1.1132962"
       y="-0.4106987"
       height="1.8213974">
      <feGaussianBlur
         inkscape:collect="always"
         stdDeviation="16.427948"
         id="feGaussianBlur3357" />
    </filter>
  </defs>
  <sodipodi:namedview
     id="base"
     pagecolor="#ffffff"
     bordercolor="#666666"
     borderopacity="1.0"
     gridtolerance="10000"
     guidetolerance="10"
     objecttolerance="10"
     inkscape:pageopacity="0.0"
     inkscape:pageshadow="2"
     inkscape:zoom="0.98994949"
     inkscape:cx="405.16784"
     inkscape:cy="970.66605"
     inkscape:document-units="px"
     inkscape:current-layer="layer1"
     showgrid="true"
     inkscape:window-width="982"
     inkscape:window-height="532"
     inkscape:window-x="32"
     inkscape:window-y="0">
    <inkscape:grid
       type="xygrid"
       id="grid2383"
       visible="true"
       enabled="true"
       spacingx="4px"
       spacingy="4px" />
  </sodipodi:namedview>
  <metadata
     id="metadata7">
    <rdf:RDF>
      <cc:Work
         rdf:about="">
        <dc:format>image/svg+xml</dc:format>
        <dc:type
           rdf:resource="http://purl.org/dc/dcmitype/StillImage" />
      </cc:Work>
    </rdf:RDF>
  </metadata>
  <g
     inkscape:label="Layer 1"
     inkscape:groupmode="layer"
     id="layer1">
    <rect
       style="fill:#000000;fill-opacity:1;stroke:none;stroke-width:1.5;stroke-miterlimit:4;stroke-dasharray:none;stroke-opacity:1"
       id="rect3277"
       width="780"
       height="160"
       x="-20"
       y="32.362183" />
    <g
       id="g3212"
       style="fill:#ffffff;fill-opacity:1;filter:url(#filter3355)">
      <path
         id="path3198"
         style="fill:#ffffff;fill-rule:evenodd;stroke:none;stroke-width:1px;stroke-linecap:butt;stroke-linejoin:miter;stroke-opacity:1;fill-opacity:1"
         d="M 20,72.362183 L 20,148.36218 L 36,148.36218 L 36,128.36218 L 116,128.36218 L 116,72.362183 L 20,72.362183 zM 36,112.36218 L 36,88.362183 L 100,88.362183 L 100,112.36218 L 36,112.36218 z" />
      <path
         style="fill:#ffffff;fill-rule:evenodd;stroke:none;stroke-width:1px;stroke-linecap:butt;stroke-linejoin:miter;stroke-opacity:1;fill-opacity:1"
         d="M 120,72.362183 L 120,128.36218 L 200,128.36218 L 200,132.36218 L 120,132.36218 L 120,148.36218 L 216,148.36218 L 216,72.362183 L 200,72.362183 L 200,112.36218 L 136,112.36218 L 136,72.362183 L 120,72.362183 z"
         id="path3200" />
      <path
         style="fill:#ffffff;fill-rule:evenodd;stroke:none;stroke-width:1px;stroke-linecap:butt;stroke-linejoin:miter;stroke-opacity:1;fill-opacity:1"
         d="M 220,72.362183 L 220,108.36218 L 300,108.36218 L 300,112.36218 L 220,112.36218 L 220,128.36218 L 316,128.36218 L 316,92.362183 L 236,92.362183 L 236,88.362183 L 316,88.362183 L 316,72.362183 L 220,72.362183 z"
         id="path3202" />
      <path
         style="fill:#ffffff;fill-rule:evenodd;stroke:none;stroke-width:1px;stroke-linecap:butt;stroke-linejoin:miter;stroke-opacity:1;fill-opacity:1"
         d="M 320,128.36218 L 336,128.36218 L 336,88.362183 L 400,88.362183 L 400,128.36218 L 416,128.36218 L 416,72.362183 L 320,72.362183 L 320,128.36218 z"
         id="path3204" />
      <path
         id="path3206"
         style="fill:#ffffff;fill-rule:evenodd;stroke:none;stroke-width:1px;stroke-linecap:butt;stroke-linejoin:miter;stroke-opacity:1;fill-opacity:1"
         d="M 420,72.362183 L 420,88.362183 L 500,88.362183 L 500,92.362183 L 420,92.362183 L 420,128.36218 L 516,128.36218 L 516,72.362183 L 420,72.362183 zM 436,108.36218 L 436,112.36218 L 500,112.36218 L 500,108.36218 L 436,108.36218 z" />
      <path
         style="fill:#ffffff;fill-rule:evenodd;stroke:none;stroke-width:1px;stroke-linecap:butt;stroke-linejoin:miter;stroke-opacity:1;fill-opacity:1"
         d="M 520,52.362183 L 520,128.36218 L 536,128.36218 L 536,108.36218 L 560,108.36218 L 560,128.36218 L 616,128.36218 L 616,112.36218 L 576,112.36218 L 576,88.362183 L 596,88.362183 L 596,72.362183 L 560,72.362183 L 560,92.362183 L 536,92.362183 L 536,52.362183 L 520,52.362183 z"
         id="path3208" />
      <path
         id="path3210"
         style="fill:#ffffff;fill-rule:evenodd;stroke:none;stroke-width:1px;stroke-linecap:butt;stroke-linejoin:miter;stroke-opacity:1;fill-opacity:1"
         d="M 620,72.362183 L 620,128.36218 L 716,128.36218 L 716,112.36218 L 636,112.36218 L 636,108.36218 L 716,108.36218 L 716,72.362183 L 620,72.362183 zM 636,88.362183 L 636,92.362183 L 700,92.362183 L 700,88.362183 L 636,88.362183 z" />
    </g>
    <path
       id="path2385"
       style="fill:#ff0000;fill-rule:evenodd;stroke:none;stroke-width:1px;stroke-linecap:butt;stroke-linejoin:miter;stroke-opacity:1;fill-opacity:1"
       d="M 20,72.362183 L 20,148.36218 L 36,148.36218 L 36,128.36218 L 116,128.36218 L 116,72.362183 L 20,72.362183 zM 36,112.36218 L 36,88.362183 L 100,88.362183 L 100,112.36218 L 36,112.36218 z" />
    <path
       style="fill:#ff0000;fill-rule:evenodd;stroke:none;stroke-width:1px;stroke-linecap:butt;stroke-linejoin:miter;stroke-opacity:1;fill-opacity:1"
       d="M 120,72.362183 L 120,128.36218 L 200,128.36218 L 200,132.36218 L 120,132.36218 L 120,148.36218 L 216,148.36218 L 216,72.362183 L 200,72.362183 L 200,112.36218 L 136,112.36218 L 136,72.362183 L 120,72.362183 z"
       id="path2389" />
    <path
       style="fill:#ff0000;fill-rule:evenodd;stroke:none;stroke-width:1px;stroke-linecap:butt;stroke-linejoin:miter;stroke-opacity:1;fill-opacity:1"
       d="M 220,72.362183 L 220,108.36218 L 300,108.36218 L 300,112.36218 L 220,112.36218 L 220,128.36218 L 316,128.36218 L 316,92.362183 L 236,92.362183 L 236,88.362183 L 316,88.362183 L 316,72.362183 L 220,72.362183 z"
       id="path2391" />
    <path
       style="fill:#ff0000;fill-rule:evenodd;stroke:none;stroke-width:1px;stroke-linecap:butt;stroke-linejoin:miter;stroke-opacity:1;fill-opacity:1"
       d="M 320,128.36218 L 336,128.36218 L 336,88.362183 L 400,88.362183 L 400,128.36218 L 416,128.36218 L 416,72.362183 L 320,72.362183 L 320,128.36218 z"
       id="path2393" />
    <path
       id="path2395"
       style="fill:#ff0000;fill-rule:evenodd;stroke:none;stroke-width:1px;stroke-linecap:butt;stroke-linejoin:miter;stroke-opacity:1;fill-opacity:1"
       d="M 420,72.362183 L 420,88.362183 L 500,88.362183 L 500,92.362183 L 420,92.362183 L 420,128.36218 L 516,128.36218 L 516,72.362183 L 420,72.362183 zM 436,108.36218 L 436,112.36218 L 500,112.36218 L 500,108.36218 L 436,108.36218 z" />
    <path
       style="fill:#ff0000;fill-rule:evenodd;stroke:none;stroke-width:1px;stroke-linecap:butt;stroke-linejoin:miter;stroke-opacity:1;fill-opacity:1"
       d="M 520,52.362183 L 520,128.36218 L 536,128.36218 L 536,108.36218 L 560,108.36218 L 560,128.36218 L 616,128.36218 L 616,112.36218 L 576,112.36218 L 576,88.362183 L 596,88.362183 L 596,72.362183 L 560,72.362183 L 560,92.362183 L 536,92.362183 L 536,52.362183 L 520,52.362183 z"
       id="path2399" />
    <path
       id="path2401"
       style="fill:#ff0000;fill-rule:evenodd;stroke:none;stroke-width:1px;stroke-linecap:butt;stroke-linejoin:miter;stroke-opacity:1;fill-opacity:1"
       d="M 620,72.362183 L 620,128.36218 L 716,128.36218 L 716,112.36218 L 636,112.36218 L 636,108.36218 L 716,108.36218 L 716,72.362183 L 620,72.362183 zM 636,88.362183 L 636,92.362183 L 700,92.362183 L 700,88.362183 L 636,88.362183 z" />
  </g>
</svg>
