<?xml version="1.0" encoding="UTF-8" standalone="no"?>
<!-- Created with Inkscape (http://www.inkscape.org/) -->
<svg
   xmlns:dc="http://purl.org/dc/elements/1.1/"
   xmlns:cc="http://creativecommons.org/ns#"
   xmlns:rdf="http://www.w3.org/1999/02/22-rdf-syntax-ns#"
   xmlns:svg="http://www.w3.org/2000/svg"
   xmlns="http://www.w3.org/2000/svg"
   xmlns:sodipodi="http://sodipodi.sourceforge.net/DTD/sodipodi-0.dtd"
   xmlns:inkscape="http://www.inkscape.org/namespaces/inkscape"
   width="744.09448819"
   height="1052.3622047"
   id="svg2"
   sodipodi:version="0.32"
   inkscape:version="0.46"
   sodipodi:docname="settings.svg"
   inkscape:output_extension="org.inkscape.output.svg.inkscape">
  <defs
     id="defs4">
    <inkscape:perspective
       sodipodi:type="inkscape:persp3d"
       inkscape:vp_x="0 : 526.18109 : 1"
       inkscape:vp_y="0 : 1000 : 0"
       inkscape:vp_z="744.09448 : 526.18109 : 1"
       inkscape:persp3d-origin="372.04724 : 350.78739 : 1"
       id="perspective10" />
    <filter
       inkscape:collect="always"
       id="filter3208"
       x="-0.053484911"
       width="1.1069698"
       y="-0.39890829"
       height="1.7978166">
      <feGaussianBlur
         inkscape:collect="always"
         stdDeviation="70.672729"
         id="feGaussianBlur3210" />
    </filter>
  </defs>
  <sodipodi:namedview
     id="base"
     pagecolor="#ffffff"
     bordercolor="#666666"
     borderopacity="1.0"
     gridtolerance="10000"
     guidetolerance="10"
     objecttolerance="10"
     inkscape:pageopacity="0.0"
     inkscape:pageshadow="2"
     inkscape:zoom="0.175"
     inkscape:cx="1233.109"
     inkscape:cy="244.83211"
     inkscape:document-units="px"
     inkscape:current-layer="layer1"
     showgrid="true"
     inkscape:window-width="982"
     inkscape:window-height="532"
     inkscape:window-x="32"
     inkscape:window-y="0">
    <inkscape:grid
       type="xygrid"
       id="grid2383"
       visible="true"
       enabled="true"
       units="mm"
       spacingx="5mm"
       spacingy="5mm" />
  </sodipodi:namedview>
  <metadata
     id="metadata7">
    <rdf:RDF>
      <cc:Work
         rdf:about="">
        <dc:format>image/svg+xml</dc:format>
        <dc:type
           rdf:resource="http://purl.org/dc/dcmitype/StillImage" />
      </cc:Work>
    </rdf:RDF>
  </metadata>
  <g
     inkscape:label="Layer 1"
     inkscape:groupmode="layer"
     id="layer1">
    <rect
       style="fill:#000000;fill-opacity:1;stroke:none;stroke-width:1.5;stroke-miterlimit:4;stroke-dasharray:none;stroke-opacity:1"
       id="rect3212"
       width="3543.3071"
       height="620.07874"
       x="-1240.1575"
       y="343.70078" />
    <path
       d="M -1062.9921,520.86612 L -637.79528,520.86612 L -637.79528,591.73226 L -992.12598,591.73226 L -992.12598,609.4488 L -637.79528,609.4488 L -637.79528,768.89762 L -1062.9921,768.89762 L -1062.9921,698.03147 L -708.66142,698.03147 L -708.66142,680.31494 L -1062.9921,680.31494 L -1062.9921,520.86612 zM -620.07874,520.86612 L -620.07874,768.89762 L -194.88188,768.89762 L -194.88188,698.03147 L -549.2126,698.03147 L -549.2126,680.31494 L -194.88188,680.31494 L -194.88188,520.86612 L -620.07874,520.86612 zM -549.2126,591.73226 L -549.2126,609.4488 L -265.74803,609.4488 L -265.74803,591.73226 L -549.2126,591.73226 zM -177.16538,432.28344 L -177.16538,768.89762 L 248.03152,768.89762 L 248.03152,698.03147 L -106.29918,698.03147 L -106.29918,591.73226 L 159.44882,591.73226 L 159.44882,520.86612 L -106.29918,520.86612 L -106.29918,432.28344 L -177.16538,432.28344 zM 265.74802,432.28344 L 265.74802,768.89762 L 690.94492,768.89762 L 690.94492,698.03147 L 336.61422,698.03147 L 336.61422,591.73226 L 602.36222,591.73226 L 602.36222,520.86612 L 336.61422,520.86612 L 336.61422,432.28344 L 265.74802,432.28344 zM 708.66142,432.28344 L 708.66142,503.14958 L 779.52752,503.14958 L 779.52752,432.28344 L 708.66142,432.28344 zM 708.66142,520.86612 L 708.66142,768.89762 L 779.52752,768.89762 L 779.52752,520.86612 L 708.66142,520.86612 zM 797.24412,520.86612 L 797.24412,768.89762 L 868.11022,768.89762 L 868.11022,591.73226 L 1151.5748,591.73226 L 1151.5748,768.89762 L 1222.4409,768.89762 L 1222.4409,520.86612 L 797.24412,520.86612 zM 1240.1575,520.86612 L 1240.1575,768.89762 L 1594.4882,768.89762 L 1594.4882,786.61415 L 1240.1575,786.61415 L 1240.1575,857.48029 L 1665.3543,857.48029 L 1665.3543,520.86612 L 1240.1575,520.86612 zM 1311.0236,591.73226 L 1594.4882,591.73226 L 1594.4882,698.03147 L 1311.0236,698.03147 L 1311.0236,591.73226 zM 1683.0709,520.86612 L 1683.0709,680.31494 L 2037.4016,680.31494 L 2037.4016,698.03147 L 1683.0709,698.03147 L 1683.0709,768.89762 L 2108.2677,768.89762 L 2108.2677,609.4488 L 1753.937,609.4488 L 1753.937,591.73226 L 2108.2677,591.73226 L 2108.2677,520.86612 L 1683.0709,520.86612 z"
       style="fill:#ffffff;fill-rule:evenodd;stroke:none;stroke-width:1px;stroke-linecap:butt;stroke-linejoin:miter;stroke-opacity:1;fill-opacity:1;filter:url(#filter3208)"
       id="path3178" />
    <path
       id="path2385"
       style="fill:#ff0000;fill-rule:evenodd;stroke:none;stroke-width:1px;stroke-linecap:butt;stroke-linejoin:miter;stroke-opacity:1;fill-opacity:1"
       d="M -1062.9921,520.86612 L -637.79528,520.86612 L -637.79528,591.73226 L -992.12598,591.73226 L -992.12598,609.4488 L -637.79528,609.4488 L -637.79528,768.89762 L -1062.9921,768.89762 L -1062.9921,698.03147 L -708.66142,698.03147 L -708.66142,680.31494 L -1062.9921,680.31494 L -1062.9921,520.86612 zM -620.07874,520.86612 L -620.07874,768.89762 L -194.88188,768.89762 L -194.88188,698.03147 L -549.2126,698.03147 L -549.2126,680.31494 L -194.88188,680.31494 L -194.88188,520.86612 L -620.07874,520.86612 zM -549.2126,591.73226 L -549.2126,609.4488 L -265.74803,609.4488 L -265.74803,591.73226 L -549.2126,591.73226 zM -177.16538,432.28344 L -177.16538,768.89762 L 248.03152,768.89762 L 248.03152,698.03147 L -106.29918,698.03147 L -106.29918,591.73226 L 159.44882,591.73226 L 159.44882,520.86612 L -106.29918,520.86612 L -106.29918,432.28344 L -177.16538,432.28344 zM 265.74802,432.28344 L 265.74802,768.89762 L 690.94492,768.89762 L 690.94492,698.03147 L 336.61422,698.03147 L 336.61422,591.73226 L 602.36222,591.73226 L 602.36222,520.86612 L 336.61422,520.86612 L 336.61422,432.28344 L 265.74802,432.28344 zM 708.66142,432.28344 L 708.66142,503.14958 L 779.52752,503.14958 L 779.52752,432.28344 L 708.66142,432.28344 zM 708.66142,520.86612 L 708.66142,768.89762 L 779.52752,768.89762 L 779.52752,520.86612 L 708.66142,520.86612 zM 797.24412,520.86612 L 797.24412,768.89762 L 868.11022,768.89762 L 868.11022,591.73226 L 1151.5748,591.73226 L 1151.5748,768.89762 L 1222.4409,768.89762 L 1222.4409,520.86612 L 797.24412,520.86612 zM 1240.1575,520.86612 L 1240.1575,768.89762 L 1594.4882,768.89762 L 1594.4882,786.61415 L 1240.1575,786.61415 L 1240.1575,857.48029 L 1665.3543,857.48029 L 1665.3543,520.86612 L 1240.1575,520.86612 zM 1311.0236,591.73226 L 1594.4882,591.73226 L 1594.4882,698.03147 L 1311.0236,698.03147 L 1311.0236,591.73226 zM 1683.0709,520.86612 L 1683.0709,680.31494 L 2037.4016,680.31494 L 2037.4016,698.03147 L 1683.0709,698.03147 L 1683.0709,768.89762 L 2108.2677,768.89762 L 2108.2677,609.4488 L 1753.937,609.4488 L 1753.937,591.73226 L 2108.2677,591.73226 L 2108.2677,520.86612 L 1683.0709,520.86612 z" />
  </g>
</svg>
